<svg width="24" height="24" viewBox="0 0 24 24" fill="none" xmlns="http://www.w3.org/2000/svg">
<path d="M1 12C1 9.08262 2.15893 6.28473 4.22183 4.22183C6.28473 2.15893 9.08262 1 12 1C14.9174 1 17.7153 2.15893 19.7782 4.22183C21.8411 6.28473 23 9.08262 23 12V18.9988C23 20.1648 23 20.745 22.8268 21.2111C22.689 21.5805 22.4734 21.9159 22.1947 22.1947C21.9159 22.4734 21.5805 22.689 21.2111 22.8268C20.745 23 20.1634 23 18.9988 23H12C9.08262 23 6.28473 21.8411 4.22183 19.7782C2.15893 17.7153 1 14.9174 1 12Z" stroke="#A3A3A3" stroke-width="2"/>
</svg>
